<?xml version="1.0" encoding="UTF-8" standalone="no"?>
<!-- Generator: Adobe Illustrator 18.0.0, SVG Export Plug-In . SVG Version: 6.00 Build 0)  -->

<svg
   xmlns:dc="http://purl.org/dc/elements/1.1/"
   xmlns:cc="http://creativecommons.org/ns#"
   xmlns:rdf="http://www.w3.org/1999/02/22-rdf-syntax-ns#"
   xmlns:svg="http://www.w3.org/2000/svg"
   xmlns="http://www.w3.org/2000/svg"
   xmlns:sodipodi="http://sodipodi.sourceforge.net/DTD/sodipodi-0.dtd"
   xmlns:inkscape="http://www.inkscape.org/namespaces/inkscape"
   version="1.1"
   id="Capa_1"
   x="0px"
   y="0px"
   viewBox="0 0 64 64"
   xml:space="preserve"
   sodipodi:docname="object_propalautosend.svg"
   width="64"
   height="64"
   inkscape:version="0.92.5 (2060ec1f9f, 2020-04-08)"
   inkscape:export-filename="/home/john/WWW/dolibarr/htdocs/custom/propalautosend/img/propalautosend.png"
   inkscape:export-xdpi="48"
   inkscape:export-ydpi="48"><metadata
   id="metadata49"><rdf:RDF><cc:Work
       rdf:about=""><dc:format>image/svg+xml</dc:format><dc:type
         rdf:resource="http://purl.org/dc/dcmitype/StillImage" /><dc:title></dc:title></cc:Work></rdf:RDF></metadata><defs
   id="defs47">
	
	
	
	
	
</defs><sodipodi:namedview
   pagecolor="#505050"
   bordercolor="#ffffff"
   borderopacity="1"
   objecttolerance="10"
   gridtolerance="10"
   guidetolerance="10"
   inkscape:pageopacity="0"
   inkscape:pageshadow="2"
   inkscape:window-width="1920"
   inkscape:window-height="1043"
   id="namedview45"
   showgrid="false"
   inkscape:zoom="11.313708"
   inkscape:cx="36.865203"
   inkscape:cy="30.248382"
   inkscape:window-x="0"
   inkscape:window-y="293"
   inkscape:window-maximized="1"
   inkscape:current-layer="Capa_1"><inkscape:grid
     type="xygrid"
     id="grid1395" /></sodipodi:namedview>
<g
   id="g1071"
   transform="matrix(0.1440819,0,0,0.14184919,-6.2903562,-5.296742)" /><g
   id="g1073"
   transform="matrix(0.1440819,0,0,0.14184919,-6.2903562,-5.296742)" /><g
   id="g1075"
   transform="matrix(0.1440819,0,0,0.14184919,-6.2903562,-5.296742)" /><g
   id="g1077"
   transform="matrix(0.1440819,0,0,0.14184919,-6.2903562,-5.296742)" /><g
   id="g1079"
   transform="matrix(0.1440819,0,0,0.14184919,-6.2903562,-5.296742)" /><g
   id="g1081"
   transform="matrix(0.1440819,0,0,0.14184919,-6.2903562,-5.296742)" /><g
   id="g1083"
   transform="matrix(0.1440819,0,0,0.14184919,-6.2903562,-5.296742)" /><g
   id="g1085"
   transform="matrix(0.1440819,0,0,0.14184919,-6.2903562,-5.296742)" /><g
   id="g1087"
   transform="matrix(0.1440819,0,0,0.14184919,-6.2903562,-5.296742)" /><g
   id="g1089"
   transform="matrix(0.1440819,0,0,0.14184919,-6.2903562,-5.296742)" /><g
   id="g1091"
   transform="matrix(0.1440819,0,0,0.14184919,-6.2903562,-5.296742)" /><g
   id="g1093"
   transform="matrix(0.1440819,0,0,0.14184919,-6.2903562,-5.296742)" /><g
   id="g1095"
   transform="matrix(0.1440819,0,0,0.14184919,-6.2903562,-5.296742)" /><g
   id="g1097"
   transform="matrix(0.1440819,0,0,0.14184919,-6.2903562,-5.296742)" /><g
   id="g1099"
   transform="matrix(0.1440819,0,0,0.14184919,-6.2903562,-5.296742)" />
<g
   id="g14"
   transform="translate(0,5)">
</g>
<g
   id="g16"
   transform="translate(0,5)">
</g>
<g
   id="g18"
   transform="translate(0,5)">
</g>
<g
   id="g20"
   transform="translate(0,5)">
</g>
<g
   id="g22"
   transform="translate(0,5)">
</g>
<g
   id="g24"
   transform="translate(0,5)">
</g>
<g
   id="g26"
   transform="translate(0,5)">
</g>
<g
   id="g28"
   transform="translate(0,5)">
</g>
<g
   id="g30"
   transform="translate(0,5)">
</g>
<g
   id="g32"
   transform="translate(0,5)">
</g>
<g
   id="g34"
   transform="translate(0,5)">
</g>
<g
   id="g36"
   transform="translate(0,5)">
</g>
<g
   id="g38"
   transform="translate(0,5)">
</g>
<g
   id="g40"
   transform="translate(0,5)">
</g>
<g
   id="g42"
   transform="translate(0,5)">
</g>
<g
   id="g1393"
   transform="matrix(0.98045667,0,0,0.98045667,3.4949252,11.071537)"><g
     style="fill:#cb4f24;fill-opacity:1"
     id="g1376"><path
       style="fill:#cb4f24;fill-opacity:1;stroke-width:0.14296119"
       d="m 3.0742188,-10.296875 c -0.7957644,0 -1.4394532,0.6345357 -1.4394532,1.4179688 V 5.5097656 L 4.515625,8.0800781 V -7.4589844 H 53.503906 V 8.0625 L 56.376953,5.5 h 0.0078 V -8.8789062 c 0,-0.7834331 -0.643689,-1.4179688 -1.439454,-1.4179688 z"
       id="path1038"
       inkscape:connector-curvature="0" /><g
       style="fill:#cb4f24;fill-opacity:1"
       id="g1045"
       transform="matrix(0.1440819,0,0,0.14184919,-6.2903562,-10.296742)"><rect
         id="rect1043"
         height="20"
         width="80"
         style="fill:#cb4f24;fill-opacity:1"
         y="50"
         x="110" /></g><g
       style="fill:#cb4f24;fill-opacity:1"
       id="g1049"
       transform="matrix(0.1440819,0,0,0.14184919,-6.2903562,-10.296742)"><rect
         id="rect1047"
         height="20"
         width="130"
         style="fill:#cb4f24;fill-opacity:1"
         y="80"
         x="110" /></g><path
       style="fill:#cb4f24;fill-opacity:1;stroke-width:0.14296119"
       d="m 11,7.4335938 c -0.795765,0 -1.4414062,0.6364888 -1.4414062,1.4199218 v 3.7226564 l 2.8808592,2.568359 v -4.873047 h 7.925781 v 4.964844 h -7.822265 l 3.179687,2.835938 h 4.642578 v 4.138672 l 4.904297,4.373046 h 7.460938 l 3.183593,-2.83789 H 23.246094 v -5.673828 h 19.03125 l 3.179687,-2.835938 H 23.246094 v -4.964844 h 22.333984 v 4.855469 l 2.88086,-2.568359 V 8.8535156 c 0,-0.783433 -0.645643,-1.4199219 -1.441407,-1.4199218 z"
       id="path1051"
       inkscape:connector-curvature="0" /></g><g
     transform="matrix(0.1440819,0,0,0.14184919,-6.2903562,-10.296742)"
     id="g1063"><rect
       x="145"
       y="335"
       style="fill:#231f20"
       width="25"
       height="20"
       id="rect1061" /></g><g
     transform="matrix(0.1440819,0,0,0.14184919,-6.2903562,-10.296742)"
     id="g1067"><rect
       x="145"
       y="375"
       style="fill:#231f20"
       width="25"
       height="20"
       id="rect1065" /></g><path
     style="fill:#cb4f24;fill-opacity:0.94117647"
     d="m 46,27.5 c -3.764,0 -7.317,1.581 -9.75,4.338 -0.365,0.415 -0.326,1.047 0.088,1.412 0.415,0.366 1.045,0.327 1.412,-0.088 2.053,-2.327 5.061,-3.662 8.25,-3.662 6.065,0 11,4.935 11,11 0,6.065 -4.935,11 -11,11 -4.992,0 -9.407,-3.367 -10.741,-8 H 40 v -2 h -8 v 8 h 2 v -3.663 c 2.093,4.531 6.781,7.663 12,7.663 7.168,0 13,-5.832 13,-13 0,-7.168 -5.832,-13 -13,-13 z"
     id="path2"
     inkscape:connector-curvature="0" /><path
     style="fill:#00384e;fill-opacity:1"
     d="M 36.63,27.558 C 39.267,25.644 42.499,24.5 46,24.5 c 4.78,0 9.066,2.118 12,5.453 V 6.732 L 35.587,26.717 Z"
     id="path6"
     inkscape:connector-curvature="0" /><path
     style="fill:#00384e;fill-opacity:1"
     d="m 35.057,28.859 -0.983,-0.793 -1.444,1.287 c -1,0.893 -2.315,1.34 -3.63,1.34 -1.315,0 -2.63,-0.447 -3.631,-1.34 L 23.955,28.092 C 18.434,32.906 6.104,42.502 0.948,46.49 0.966,46.49 0.981,46.5 1,46.5 H 31.178 C 30.424,44.645 30,42.622 30,40.5 c 0,-4.589 1.953,-8.72 5.057,-11.641 z"
     id="path10"
     inkscape:connector-curvature="0" /><path
     style="fill:#00384e;fill-opacity:1"
     d="M 0.26791748,6.6073883 V 44.569388 c 5.23300002,-4.049 16.98599952,-13.204 22.44899952,-17.944 z"
     id="path4"
     inkscape:connector-curvature="0" /></g></svg>